<svg width="1440" height="300" viewBox="0 0 1440 300" fill="none" xmlns="http://www.w3.org/2000/svg">
<rect width="1440" height="300" fill="#22385E"/>
<mask id="mask0" mask-type="alpha" maskUnits="userSpaceOnUse" x="0" y="0" width="1440" height="300">
<rect width="1440" height="300" fill="#22385E"/>
</mask>
<g mask="url(#mask0)">
<mask id="mask1" mask-type="alpha" maskUnits="userSpaceOnUse" x="1062" y="0" width="378" height="301">
<path d="M1196.5 170.5L1383 0.000366211H1440V300H1062.5L1196.5 170.5Z" fill="white"/>
</mask>
<g mask="url(#mask1)">
<path opacity="0.1" fill-rule="evenodd" clip-rule="evenodd" d="M1415.66 279.858H1444.98V250.61H1415.66V279.858ZM1384.39 309.677V250.61H1413.71V280.43L1384.39 309.677ZM1444.98 311.056H1385.77L1415.09 281.808H1444.98V311.056ZM1382.43 311.056H1323.23L1345.45 288.88H1361.66V272.71L1382.43 251.989V311.056ZM1346.03 286.93H1359.71V273.281H1346.03V286.93ZM1321.84 250.61H1381.05L1360.28 271.331H1344.07V287.502L1321.84 309.677V250.61ZM1290.57 311.056H1319.89V250.61H1290.57V311.056ZM1288.62 288.071C1285.84 282.785 1280.35 279.131 1273.96 279.131H1259.3V250.61H1288.62V288.071ZM1288.62 311.056H1274.94V295.457H1259.3V281.08H1273.96C1282.04 281.08 1288.62 287.642 1288.62 295.705V311.056ZM1259.3 311.056H1272.98V297.407H1259.3V311.056ZM1257.34 279.131H1235.75C1235.25 274.756 1231.56 271.331 1227.05 271.331C1222.29 271.331 1218.41 275.137 1218.28 279.858H1196.75V250.61H1257.34V279.131ZM1220.21 280.106C1220.21 276.343 1223.28 273.281 1227.05 273.281C1230.82 273.281 1233.89 276.343 1233.89 280.106C1233.89 283.869 1230.82 286.93 1227.05 286.93C1223.28 286.93 1220.21 283.869 1220.21 280.106V280.106ZM1257.34 295.457V311.056H1196.75V281.808H1218.43C1219.23 285.833 1222.79 288.88 1227.05 288.88C1231.56 288.88 1235.25 285.455 1235.75 281.08H1257.34V295.457ZM1194.8 279.858H1166.86L1194.8 251.989V279.858ZM1194.8 311.056H1166.86L1194.8 283.187V311.056ZM1136.32 281.808H1193.42L1164.87 310.289L1136.32 281.808ZM1134.21 311.056V282.459L1162.88 311.056H1134.21ZM1132.26 277.752L1105.05 250.61H1132.26V277.752ZM1095.12 311.056H1132.26V281.808H1095.12V311.056ZM1093.17 279.858V311.056H1071.67V250.61H1102.28L1131.6 279.858H1093.17ZM1069.71 311.056H1009.12V281.808H1039.42C1053.35 281.808 1065.21 272.929 1069.71 260.557V311.056ZM977.998 279.858H1007.17V250.61H977.998V279.858ZM1007.17 311.056H946.775C947.298 294.844 960.645 281.808 977.021 281.808H1007.17V311.056ZM946.576 281.808V250.61H976.043V279.908C962.384 280.319 950.856 289.225 946.576 301.514V281.808ZM915.304 279.858H944.622V250.61H915.304V279.858ZM944.622 311.056H885.414L914.732 281.808H944.622V311.056ZM884.031 250.61H913.35V280.43L884.031 309.677V250.61ZM882.077 311.056H822.869L845.098 288.88H861.307V272.71L882.077 251.989V311.056ZM845.67 286.93H859.352V273.281H845.67V286.93ZM821.488 250.61H880.695L859.925 271.331H843.716V287.502L821.488 309.677V250.61ZM790.216 311.056H819.533V250.61H790.216V311.056ZM788.261 288.071C785.482 282.785 779.991 279.131 773.602 279.131H758.943V250.61H788.261V288.071ZM788.261 311.056H774.579V295.457H758.943V281.08H773.602C781.683 281.08 788.261 287.642 788.261 295.705V311.056ZM758.943 311.056H772.624V297.407H758.943V311.056ZM756.988 279.131H735.389C734.895 274.756 731.207 271.331 726.693 271.331C721.929 271.331 718.058 275.137 717.923 279.858H696.399V250.61H756.988V279.131ZM719.852 280.106C719.852 276.343 722.922 273.281 726.693 273.281C730.465 273.281 733.534 276.343 733.534 280.106C733.534 283.869 730.465 286.93 726.693 286.93C722.922 286.93 719.852 283.869 719.852 280.106V280.106ZM756.988 295.457V311.056H696.399V281.808H718.07C718.869 285.833 722.429 288.88 726.693 288.88C731.207 288.88 734.895 285.455 735.389 281.08H756.988V295.457ZM694.444 279.858H666.508L694.444 251.989V279.858ZM694.444 311.056H666.508L694.444 283.187V311.056ZM635.965 281.808H693.062L664.513 310.289L635.965 281.808ZM633.854 311.056V282.459L662.519 311.056H633.854ZM631.899 277.752L604.692 250.61H631.899V277.752ZM594.764 311.056H631.899V281.808H594.764V311.056ZM592.809 279.858V311.056H571.309V250.61H601.928L631.246 279.858H592.809ZM569.354 311.056H508.764V281.808H539.06C552.993 281.808 564.858 272.929 569.354 260.557V311.056ZM477.642 279.858H506.811V250.61H477.642V279.858ZM506.811 311.056H446.419C446.942 294.844 460.289 281.808 476.664 281.808H506.811V311.056ZM446.22 250.61H475.687V279.908C462.028 280.319 450.5 289.225 446.22 301.514V250.61ZM446.22 211.612L453.019 218.395L453.71 219.084L475.824 241.146L476.515 241.835L483.314 248.618H446.22V211.612ZM446.22 188.172H475.687V195.781L454.401 217.016L446.22 208.855V188.172ZM446.22 126.811L475.687 156.208V171.403V172.378V186.222H446.22V126.811ZM493.129 108.227H506.811V78.9784H493.129V108.227ZM493.129 123.826H506.811V110.176H493.129V123.826ZM461.856 108.226H491.174V78.9779H461.856V108.226ZM491.895 154.83H477.069L447.946 125.775H491.174H506.811V139.95L491.895 154.83ZM493.277 171V156.208L506.811 142.707V184.501L493.277 171ZM477.641 170.429H491.323V156.78H477.641V170.429ZM491.895 172.378L505.772 186.222H477.641V172.378H491.895ZM499.034 217.42L477.641 196.078V188.172H506.811V217.42H499.034ZM476.515 239.078L455.783 218.395L476.515 197.712L497.248 218.395L476.515 239.078ZM499.034 219.37H506.811V248.618H486.078L477.897 240.457L499.034 219.37ZM446.22 63.3791H506.811V77.0281H493.129H492.152H459.902V110.176H491.174V123.826H446.22V63.3791ZM446.22 16.5822H460.474L505.428 61.4293H446.22V16.5822ZM446.22 14.6324H459.901V0.982849H446.22V14.6324ZM446.22 -61.4134H475.538H475.687V-47.6656C466.987 -47.1494 460.051 -39.9969 460.051 -31.1904C460.051 -27.0107 461.661 -23.2307 464.229 -20.3114L446.22 -2.34544V-61.4134ZM446.22 -123.81H475.538V-94.5618V-93.5867V-63.3632H446.22V-123.81ZM477.691 -125.759C478.201 -141.595 490.957 -154.364 506.811 -154.95V-125.759H477.691ZM477.492 -94.5613H506.81V-123.81H477.492V-94.5613ZM477.492 -63.3632H506.81V-92.612H477.492V-63.3632ZM462.006 -31.1904C462.006 -39.2521 468.583 -45.8141 476.664 -45.8141C484.745 -45.8141 491.323 -39.2521 491.323 -31.1904C491.323 -23.1277 484.745 -16.5662 476.664 -16.5662C468.583 -16.5662 462.006 -23.1277 462.006 -31.1904V-31.1904ZM506.811 0.982849V60.0508L461.856 15.2031V0.982849H506.811ZM461.856 -0.966923H447.602L465.597 -18.9194C468.543 -16.2726 472.398 -14.6159 476.664 -14.6159C485.826 -14.6159 493.277 -22.0502 493.277 -31.1904C493.277 -39.9969 486.341 -47.1494 477.641 -47.6656V-61.4134H506.811V-0.966923H461.856ZM446.22 -186.205H506.811V-156.9C489.88 -156.314 476.248 -142.669 475.736 -125.759H446.22V-186.205ZM446.22 -248.602H475.687V-219.304C462.028 -218.893 450.5 -209.987 446.22 -197.698V-248.602ZM506.811 -217.404V-188.156H446.419C446.942 -204.368 460.289 -217.404 476.664 -217.404H506.811ZM477.641 -219.354H506.81V-248.602H477.641V-219.354ZM508.764 219.37H522.446H523.423H540.037V202.796V201.821V188.172H546.975C552.436 197.365 560.139 205.051 569.354 210.498V248.618H508.764V219.37ZM508.764 189.208L522.446 202.857V217.42H508.764V189.208ZM524.401 217.42H538.082V203.771H524.401V217.42ZM524.172 201.821L510.49 188.172H538.082V201.821H524.172ZM508.764 125.775H545.786C540.877 134.765 538.082 145.061 538.082 155.999C538.082 166.937 540.877 177.232 545.786 186.222H508.764V125.775ZM508.764 108.226V78.9784H530.513C531.007 83.3521 534.694 86.7781 539.208 86.7781C544.057 86.7781 548.004 82.8395 548.004 78.0033C548.004 73.5002 544.57 69.8211 540.186 69.3278V63.3791H569.354V101.499C560.139 106.947 552.436 114.632 546.975 123.826H508.764V108.226ZM539.208 71.1788C542.98 71.1788 546.05 74.2409 546.05 78.0033C546.05 81.7661 542.98 84.8283 539.208 84.8283C535.437 84.8283 532.368 81.7661 532.368 78.0033C532.368 74.2409 535.437 71.1788 539.208 71.1788V71.1788ZM508.764 63.3791H538.231V69.3278C534.171 69.7847 530.971 72.9783 530.513 77.0281H508.764V63.3791ZM508.764 23.4067C508.764 15.3445 515.342 8.78253 523.423 8.78253C531.505 8.78253 538.082 15.3445 538.082 23.4067V39.0055C538.082 48.1457 545.534 55.5795 554.696 55.5795C560.401 55.5795 566.368 52.563 569.354 44.8668V61.4293H508.764V23.4067ZM508.764 0.982849H569.354V30.2312V33.0153C569.354 45.7312 563.739 53.6297 554.696 53.6297C546.615 53.6297 540.037 47.0676 540.037 39.0055V23.4067C540.037 14.2664 532.586 6.83273 523.423 6.83273C517.036 6.83273 511.543 10.4864 508.764 15.7728V0.982849ZM508.764 -61.4134H569.354V-31.5938L538.655 -0.966923H508.764V-61.4134ZM508.764 -94.5618V-123.81H538.082V-93.1823L567.973 -63.3632H508.764V-94.5618ZM508.764 -154.966C524.756 -154.532 537.668 -141.694 538.181 -125.759H508.764V-154.966ZM508.764 -186.205H511.845C527.287 -171.477 547.655 -163.301 569.354 -163.059V-125.759H540.136C539.621 -142.768 525.834 -156.48 508.764 -156.916V-186.205ZM508.764 -217.404H539.06C552.993 -217.404 564.858 -226.283 569.354 -238.655V-188.156H508.764V-217.404ZM508.764 -248.602H569.305C568.782 -232.39 555.435 -219.354 539.06 -219.354H508.764V-248.602ZM569.354 -165.009C548.891 -165.241 529.68 -172.747 514.81 -186.205H569.354V-165.009ZM569.354 -64.7417L540.037 -93.99V-123.81H569.354V-64.7417ZM569.354 -0.966927H541.419L569.354 -28.8367V-0.966927ZM569.354 188.172V208.219C561.191 203.184 554.307 196.316 549.26 188.172H569.354ZM549.26 123.826C554.307 115.681 561.191 108.813 569.354 103.778V123.826H549.26ZM569.354 125.775V186.222H548.071C542.982 177.287 540.037 166.988 540.037 155.999C540.037 145.01 542.982 134.71 548.071 125.775H569.354ZM569.305 250.61C568.782 266.822 555.435 279.858 539.06 279.858H508.764V250.61H569.305ZM571.309 211.685C580.32 216.582 590.641 219.37 601.604 219.37H631.899V248.618H602.696L602.295 248.218L601.894 248.618H571.309V211.685ZM571.309 188.172H631.899V217.42H601.604C590.589 217.42 580.265 214.481 571.309 209.405V188.172ZM571.309 125.775H600.627V147.323C596.243 147.816 592.809 151.495 592.809 155.999C592.809 160.835 596.756 164.773 601.604 164.773C606.119 164.773 609.806 161.348 610.3 156.974H631.899V186.222H571.309V125.775ZM571.309 102.592C580.158 97.5744 590.35 94.6646 601.219 94.5965L602.581 95.9563V94.5778H631.899V123.826H571.309V102.592ZM571.309 64.7576L599.36 92.7418C589.24 93.0958 579.696 95.7541 571.309 100.313V64.7576ZM571.309 32.181H585.968C589.656 32.181 592.993 33.5938 595.571 35.8466L571.309 60.0508V32.181ZM571.309 0.982849H600.676C600.923 9.11415 604.196 16.485 609.426 22.024L596.952 34.4681C594.019 31.8629 590.196 30.2312 585.968 30.2312H571.309V0.982849ZM571.309 -30.7865L602.009 -61.4134H631.899V-32.1157C614.901 -31.6037 601.19 -17.9255 600.676 -0.966923H571.309V-30.7865ZM571.309 -61.4134H599.245L571.309 -33.5441V-61.4134ZM571.309 -63.3632H600.627V-123.81H571.309V-63.3632ZM571.309 -163.013H577.251C577.663 -154.236 584.888 -147.208 593.786 -147.208C598.014 -147.208 601.838 -148.84 604.771 -151.445L609.426 -146.801C604.196 -141.261 600.923 -133.89 600.676 -125.759H571.309V-163.013ZM571.309 -186.205H592.809V-180.257C584.51 -179.766 577.889 -173.215 577.293 -164.963H571.309V-186.205ZM571.309 -248.602H601.928L631.246 -219.354H592.809V-188.156H571.309V-248.602ZM631.899 -248.602V-221.46L604.692 -248.602H631.899ZM633.854 219.419C649.776 219.93 662.61 232.733 663.122 248.618H633.854V219.419ZM633.854 188.172H694.444V248.618H665.076C664.563 231.659 650.853 217.982 633.854 217.469V188.172ZM633.854 156.974H678.907C679.403 165.324 686.074 171.979 694.444 172.474V186.222H633.854V156.974ZM633.854 125.775H694.444V139.524C686.074 140.019 679.403 146.674 678.907 155.024H633.854V125.775ZM633.854 94.006L664.553 63.3791H694.444V77.1274C685.744 77.6431 678.808 84.7956 678.808 93.6026C678.808 102.409 685.744 109.562 694.444 110.077V123.826H633.854V94.006ZM633.854 63.3791H661.79L633.854 91.2489V63.3791ZM633.854 32.1316C642.004 31.8857 649.393 28.6203 654.945 23.403L693.062 61.4293H664.233L663.988 61.1855L663.744 61.4293H633.854V32.1316ZM633.854 0.982849H663.122C662.61 16.8675 649.776 29.6708 633.854 30.1818V0.982849ZM633.854 -0.96693H663.171V-30.2153H633.854V-0.96693ZM633.854 -32.1651H663.171V-61.4134H633.854V-32.1651ZM633.854 -123.81H663.171V-102.262C658.787 -101.769 655.353 -98.0897 655.353 -93.5867C655.353 -89.0831 658.787 -85.4039 663.171 -84.9111V-63.3632H633.854V-123.81ZM633.854 -154.958C649.776 -154.448 662.61 -141.644 663.122 -125.759H633.854V-154.958ZM633.854 -186.205H664.473L694.444 -156.306V-125.759H665.076C664.563 -142.718 650.853 -156.396 633.854 -156.908V-186.205ZM633.854 -216.753L662.519 -188.156H633.854V-216.753ZM633.854 -248.602H693.062L663.744 -219.354H634.01L633.854 -219.51V-248.602ZM694.444 -219.354H666.508L694.444 -247.224V-219.354ZM694.444 -186.205V-159.064L667.237 -186.205H694.444ZM664.513 -188.923L635.965 -217.404H693.062L664.513 -188.923ZM694.444 -216.026V-188.156H666.508L694.444 -216.026ZM665.076 0.982849H694.444V32.181V60.0508L656.326 22.024C661.556 16.485 664.83 9.11415 665.076 0.982849V0.982849ZM670.989 -93.5867C670.989 -89.8238 667.92 -86.7616 664.148 -86.7616C660.377 -86.7616 657.308 -89.8238 657.308 -93.5867C657.308 -97.349 660.377 -100.411 664.148 -100.411C667.92 -100.411 670.989 -97.349 670.989 -93.5867V-93.5867ZM669.607 -100.411C668.346 -101.418 666.814 -102.071 665.126 -102.262V-123.81H693.062L669.607 -100.411ZM665.126 -63.3632V-84.9111C669.51 -85.4039 672.944 -89.0831 672.944 -93.5867C672.944 -95.6544 672.194 -97.5299 670.989 -99.0327L694.444 -122.431V-63.3632H665.126ZM665.126 -0.96693H694.444V-30.2153H665.126V-0.96693ZM665.126 -32.1651H694.444V-61.4134H665.126V-32.1651ZM694.444 108.128C686.824 107.615 680.762 101.332 680.762 93.6026C680.762 85.8731 686.824 79.5897 694.444 79.0772V108.128ZM694.444 170.524C686.824 170.012 680.762 163.728 680.762 155.999C680.762 148.269 686.824 141.986 694.444 141.473V170.524ZM633.854 250.61H693.062L663.744 279.858H634.01L633.854 279.702V250.61ZM602.582 -63.3632H631.899V-123.81H602.582V-63.3632ZM631.899 -154.958V-125.759H602.631C603.143 -141.644 615.977 -154.448 631.899 -154.958V-154.958ZM594.763 -188.156H631.899V-217.404H594.763V-188.156ZM593.786 -149.158C585.705 -149.158 579.127 -155.72 579.127 -163.783C579.127 -171.844 585.705 -178.406 593.786 -178.406C601.868 -178.406 608.445 -171.844 608.445 -163.783C608.445 -155.72 601.868 -149.158 593.786 -149.158V-149.158ZM610.4 -163.783C610.4 -172.589 603.463 -179.741 594.763 -180.257V-186.205H631.899V-156.908C623.749 -156.662 616.36 -153.396 610.808 -148.179L606.152 -152.824C608.764 -155.75 610.4 -159.564 610.4 -163.783V-163.783ZM602.581 92.6275H631.899V63.3791H602.581V92.6275ZM602.631 -0.966934C603.143 -16.8516 615.977 -29.6554 631.899 -30.1659V-0.966934H602.631ZM631.899 0.982849V30.1818C615.977 29.6708 603.143 16.8675 602.631 0.982849H631.899ZM598.335 35.8466L610.808 23.403C616.36 28.6203 623.749 31.8857 631.899 32.1316V61.4293H602.581V46.8051C602.581 42.5875 600.946 38.7731 598.335 35.8466V35.8466ZM600.627 63.3791V91.2489L572.691 63.3791H600.627ZM572.691 61.4293L596.952 37.2257C599.21 39.7982 600.627 43.1265 600.627 46.8051V61.4293H572.691ZM608.445 155.999C608.445 159.761 605.376 162.823 601.604 162.823C597.833 162.823 594.763 159.761 594.763 155.999C594.763 152.235 597.833 149.174 601.604 149.174C605.376 149.174 608.445 152.235 608.445 155.999V155.999ZM602.581 147.323V125.775H631.899V155.024H610.3C609.842 150.974 606.641 147.78 602.581 147.323V147.323ZM696.399 188.172H755.606L696.399 247.24V188.172ZM696.399 172.474C704.768 171.979 711.439 165.324 711.935 156.974H756.988V186.222H696.399V172.474ZM696.399 141.473C704.018 141.986 710.08 148.269 710.08 155.999C710.08 163.728 704.018 170.012 696.399 170.524V141.473ZM696.399 125.775H725.716V155.024H711.935C711.439 146.674 704.768 140.019 696.399 139.524V125.775ZM696.399 123.826H725.716V63.3791H696.399V123.826ZM696.399 32.181H725.716V46.8051V47.7798V61.4293H696.399V32.181ZM696.399 30.2317H725.716V0.982849H696.399V30.2317ZM696.399 -0.96693H725.716V-30.2153H696.399V-0.96693ZM696.399 -61.4134H755.606L726.288 -32.1656H696.399V-61.4134ZM712.035 -78.962H725.716V-92.612H712.035V-78.962ZM696.399 -123.81H726.288L740.947 -109.185L726.288 -94.5618H710.08V-77.0122H727.671V-93.1823L742.33 -107.807L756.988 -93.1823V-63.3632H696.399V-123.81ZM696.399 -125.759H725.716V-186.205H696.399V-125.759ZM696.399 -217.404H718.07C718.869 -213.379 722.429 -210.332 726.693 -210.332C731.207 -210.332 734.895 -213.757 735.389 -218.131H756.988V-203.754V-188.156H696.399V-217.404ZM733.534 -219.106C733.534 -215.344 730.465 -212.282 726.693 -212.282C722.922 -212.282 719.852 -215.344 719.852 -219.106C719.852 -222.869 722.922 -225.931 726.693 -225.931C730.465 -225.931 733.534 -222.869 733.534 -219.106V-219.106ZM696.399 -248.602H756.988V-220.081H735.389C734.895 -224.455 731.207 -227.881 726.693 -227.881C721.929 -227.881 718.058 -224.075 717.923 -219.354H696.399V-248.602ZM756.988 -123.81V-95.9398L729.053 -123.81H756.988ZM727.671 -149.965H756.988V-186.205H727.671V-149.965ZM727.671 -125.759H756.988V-148.015H727.671V-125.759ZM727.671 155.024H756.988V125.775H727.671V155.024ZM727.671 123.826H756.988V94.5772H727.671V123.826ZM727.671 92.6275H756.988V63.3791H727.671V92.6275ZM727.671 -0.966934V-30.7865L756.988 -60.0349V-0.966934H727.671ZM727.671 45.83H741.352V32.181H727.671V45.83ZM743.306 47.7798V30.2312H727.671V0.982849H756.988V61.4293H727.671V47.7798H743.306ZM697.78 248.618L756.988 189.551V248.618H697.78ZM758.943 188.172H788.31C788.824 205.13 802.534 218.808 819.533 219.32V233.019H782.279C781.784 228.645 778.097 225.22 773.582 225.22C768.734 225.22 764.787 229.158 764.787 233.994C764.787 236.066 765.541 237.947 766.751 239.45L758.943 247.24V188.172ZM758.943 156.974H772.724C772.951 160.801 774.467 164.261 776.872 166.957L758.943 184.843V156.974ZM758.943 125.775H788.261V139.524C779.891 140.019 773.22 146.674 772.724 155.024H758.943V125.775ZM758.943 94.6266C774.865 95.1371 787.699 107.941 788.211 123.826H758.943V94.6266ZM758.943 63.3791H818.151L780.034 101.405C774.482 96.1881 767.093 92.9227 758.943 92.6768V63.3791ZM758.943 13.3906L771.273 25.6918L782.329 36.7204L758.943 60.0508V13.3906ZM758.943 0.982849H803.897V15.2031L794.699 24.3798C791.656 21.6794 787.818 20.1465 783.71 20.1465C779.603 20.1465 775.764 21.6794 772.722 24.3798L758.943 10.633V0.982849ZM758.943 -36.3978C767.538 -26.6463 772.351 -14.211 772.579 -0.966934H758.943V-36.3978ZM758.943 -61.4134H788.31C788.824 -44.4548 802.534 -30.7772 819.533 -30.2646V-16.5662H803.897V-0.966923H774.534C774.294 -15.4445 768.798 -29.0234 758.943 -39.3555V-61.4134ZM758.943 -92.612H809.562C797.455 -88.2322 788.719 -76.837 788.31 -63.3632H758.943V-92.612ZM758.943 -94.5613H819.533V-123.81H758.943V-94.5613ZM772.556 -148.991L782.229 -158.641L791.902 -148.991L782.229 -139.34L772.556 -148.991ZM758.943 -148.016H770.769L782.229 -136.582L794.666 -148.991L782.229 -161.398L770.769 -149.966H758.943V-186.205H774.579H788.346C789.225 -169.584 802.778 -156.289 819.533 -155.785V-125.759H758.943V-148.016ZM758.943 -188.156H772.624V-201.805H758.943V-188.156ZM758.943 -218.131H773.602C781.683 -218.131 788.261 -211.569 788.261 -203.507V-188.156H774.579V-203.754H758.943V-218.131ZM758.943 -248.602H788.261V-211.141C785.482 -216.427 779.991 -220.081 773.602 -220.081H758.943V-248.602ZM790.216 -188.156H819.533V-248.602H790.216V-188.156ZM819.533 -157.735C803.855 -158.238 791.175 -170.658 790.301 -186.205H819.533V-157.735ZM790.264 -63.3632C790.776 -79.2484 803.61 -92.0517 819.533 -92.5621V-63.3632H790.264ZM819.533 -61.4134V-32.2144C803.61 -32.7249 790.776 -45.5287 790.264 -61.4134H819.533ZM819.533 188.172V217.371C803.61 216.86 790.776 204.056 790.264 188.172H819.533ZM790.216 172.474C798.915 171.958 805.851 164.805 805.851 155.999C805.851 147.192 798.915 140.039 790.216 139.524V125.775H819.533V186.222H790.216V172.474ZM779.635 166.957L800.223 146.419C802.48 148.991 803.897 152.32 803.897 155.999C803.897 164.061 797.319 170.622 789.238 170.622C785.55 170.622 782.214 169.21 779.635 166.957V166.957ZM788.261 172.474V186.222H760.325L778.253 168.336C780.956 170.735 784.424 172.247 788.261 172.474V172.474ZM781.416 102.784L819.533 64.7576V123.826H790.166C789.919 115.695 786.646 108.323 781.416 102.784V102.784ZM798.84 145.04L778.253 165.578C775.995 163.006 774.579 159.678 774.579 155.999C774.579 147.936 781.156 141.375 789.238 141.375C792.925 141.375 796.262 142.788 798.84 145.04V145.04ZM805.851 -0.966933H819.533V-14.616H805.851V-0.966933ZM805.851 14.6324H819.533V0.982849H805.851V14.6324ZM774.06 25.7146C776.732 23.3724 780.122 22.0963 783.71 22.0963C787.298 22.0963 790.689 23.3724 793.361 25.7146L783.71 35.3424L774.06 25.7146ZM796.147 25.6918L805.279 16.5822H819.533V61.4293H760.325L783.71 38.099L796.147 25.6918ZM766.742 233.994C766.742 230.231 769.811 227.17 773.582 227.17C777.354 227.17 780.423 230.231 780.423 233.994C780.423 237.757 777.354 240.818 773.582 240.818C769.811 240.818 766.742 237.757 766.742 233.994V233.994ZM773.582 242.768C778.097 242.768 781.784 239.343 782.279 234.969H819.533V248.618H760.325L768.135 240.826C769.638 242.022 771.515 242.768 773.582 242.768V242.768ZM821.488 234.969H836.146C844.974 234.969 852.143 228.049 852.66 219.37H882.077V248.618H821.488V234.969ZM821.488 219.37H850.706C850.192 226.971 843.894 233.019 836.146 233.019H821.488V219.37ZM821.488 217.42H850.805V188.172H821.488V217.42ZM821.488 156.874C830.187 156.359 837.123 149.207 837.123 140.4V125.775H882.077V155.073C865.078 155.586 851.368 169.263 850.855 186.222H821.488V156.874ZM821.488 125.775H835.169V140.4C835.169 148.128 829.107 154.412 821.488 154.924V125.775ZM821.488 63.3791H866.441V93.3968C866.441 97.1591 863.372 100.221 859.6 100.221C855.829 100.221 852.759 97.1591 852.759 93.3968C852.759 88.56 848.813 84.622 843.964 84.622C839.116 84.622 835.169 88.56 835.169 93.3968V123.826H821.488V63.3791ZM821.488 16.5822V0.982849H835.169H835.742L866.441 31.6102V61.4293H821.488V16.5822ZM821.488 -16.5662V-61.4134H850.805V-32.1656H835.169V-0.966923H821.488V-16.5662ZM821.488 -92.7103C830.187 -93.2264 837.123 -100.379 837.123 -109.185V-123.81H866.441V-89.9111C857.354 -84.4308 851.194 -74.6263 850.855 -63.3632H821.488V-92.7103ZM821.488 -123.81H835.169V-109.185C835.169 -101.456 829.107 -95.1721 821.488 -94.6606V-123.81ZM821.488 -125.759H835.169V-155.735H821.488V-125.759ZM850.805 -156.188V-155.213V-125.759H837.123V-156.188C837.123 -159.951 840.193 -163.013 843.964 -163.013C847.736 -163.013 850.805 -159.951 850.805 -156.188V-156.188ZM821.488 -186.205H882.077V-156.958V-141.359H868.396V-157.163H852.706C852.217 -161.543 848.484 -164.963 843.964 -164.963C839.63 -164.963 836.037 -161.808 835.322 -157.685H821.488V-186.205ZM821.488 -248.602H880.695L859.925 -227.881H843.716V-211.711L821.488 -189.535V-248.602ZM845.67 -212.282H859.352V-225.931H845.67V-212.282ZM882.077 -188.156H822.869L845.098 -210.332H861.307V-226.502L882.077 -247.224V-188.156ZM868.396 61.4293H882.077V32.181H868.396V61.4293ZM882.077 -61.4134V-0.966923H852.759V-31.1904V-32.1656V-61.4134H882.077ZM868.396 -125.759H882.077V-139.409H868.396V-125.759ZM882.077 -123.81V-94.5119C877.162 -94.3633 872.524 -93.1235 868.396 -91.0105V-123.81H882.077ZM852.76 -125.759H866.441V-155.213H852.76V-125.759ZM882.077 -92.5621V-63.3632H852.809C853.32 -79.2484 866.155 -92.0517 882.077 -92.5621V-92.5621ZM837.123 -0.96693H850.805V-30.2153H837.123V-0.96693ZM852.759 0.982849H882.077V30.2312H867.823L838.505 0.982849H852.759ZM881.978 123.826H852.859C853.372 116.224 859.671 110.176 867.418 110.176C875.166 110.176 881.465 116.224 881.978 123.826V123.826ZM867.418 108.226C858.591 108.226 851.421 115.146 850.904 123.826H837.123V93.3968C837.123 89.6344 840.193 86.5723 843.964 86.5723C847.736 86.5723 850.805 89.6344 850.805 93.3968C850.805 98.2335 854.752 102.171 859.6 102.171C864.448 102.171 868.396 98.2335 868.396 93.3968V63.3791H882.077V117.167C879.299 111.881 873.807 108.226 867.418 108.226V108.226ZM852.809 186.222C853.32 170.336 866.153 157.522 882.077 157.014V186.222H852.809ZM852.76 217.42H882.077V188.172H852.76V217.42ZM884.031 219.419C899.954 219.93 912.789 232.733 913.3 248.618H884.031V219.419ZM884.031 188.172H913.311C913.873 205.119 927.611 218.77 944.622 219.233V248.618H915.254C914.741 231.659 901.031 217.982 884.031 217.469V188.172ZM884.031 158.352L911.968 186.222H884.031V158.352ZM884.031 132.435C886.811 137.72 892.303 141.375 898.691 141.375C907.519 141.375 914.688 134.455 915.205 125.775H944.622V154.978C928.005 155.431 914.514 168.463 913.373 184.866L884.031 155.595V132.435ZM913.25 125.775C912.737 133.377 906.438 139.425 898.691 139.425C890.943 139.425 884.644 133.377 884.131 125.775H913.25ZM914.327 100.427C910.555 100.427 907.487 97.365 907.487 93.6026C907.487 89.8398 910.555 86.7781 914.327 86.7781C918.098 86.7781 921.168 89.8398 921.168 93.6026C921.168 97.365 918.098 100.427 914.327 100.427V100.427ZM884.031 63.3791H944.622V123.826H915.304V102.278C919.688 101.785 923.122 98.1062 923.122 93.6026C923.122 88.7658 919.175 84.8283 914.327 84.8283C909.479 84.8283 905.532 88.7658 905.532 93.6026C905.532 98.1062 908.965 101.785 913.35 102.278V123.826H884.031V63.3791ZM884.031 32.2803C891.652 32.7923 897.714 39.0762 897.714 46.8052C897.714 54.5341 891.652 60.818 884.031 61.3306V32.2803ZM884.031 0.982849H898.286L928.986 31.6102V47.7798H944.622V61.4293H890.707C896.005 58.6567 899.668 53.1785 899.668 46.8051C899.668 37.9986 892.732 30.8461 884.031 30.33V0.982849ZM928.986 0.982849V28.8527L901.05 0.982849H928.986ZM884.031 -61.4134H897.714V-46.7892C897.714 -37.649 905.165 -30.2153 914.327 -30.2153C923.161 -30.2153 930.406 -37.1276 930.914 -45.8141H944.622V-0.966923H930.941H896.332H884.031V-61.4134ZM884.031 -92.5122C891.652 -92.0002 897.714 -85.7163 897.714 -77.9873V-63.3632H884.031V-92.5122ZM928.986 -61.4134V-47.7639V-46.7892C928.986 -38.7271 922.408 -32.1656 914.327 -32.1656C906.245 -32.1656 899.668 -38.7271 899.668 -46.7892V-61.4134H928.986ZM884.031 -123.81H915.304H944.622V-63.3632H899.668V-77.9874C899.668 -86.7939 892.732 -93.9464 884.031 -94.462V-123.81ZM884.031 -141.359V-155.008H913.35V-125.759H884.031V-141.359ZM884.031 -186.205H944.622V-125.759H915.304V-156.958H884.031V-186.205ZM884.031 -248.602H913.35V-218.783L884.031 -189.535V-248.602ZM914.732 -217.404H944.622V-188.156H885.414L914.732 -217.404ZM915.304 -219.354H944.622V-248.602H915.304V-219.354ZM930.941 -47.7639H944.622V-61.4134H930.941V-47.7639ZM930.941 30.2312V0.982849H944.622V16.5822V30.2312H930.941ZM944.622 32.181V45.83H930.941V33.56V32.181H944.622ZM915.258 186.222C915.724 170.263 928.625 157.392 944.622 156.928V186.222H915.258ZM944.622 188.172V217.283C928.688 216.82 915.825 204.045 915.266 188.172H944.622ZM946.576 211.612L953.375 218.395L954.066 219.084L976.18 241.146L976.871 241.835L983.671 248.618H946.576V211.612ZM946.576 188.172H976.043V195.781L954.757 217.016L946.576 208.855V188.172ZM946.576 126.811L976.043 156.208V171.403V172.378V186.222H946.576V126.811ZM946.576 63.3791H1007.17V77.0281H993.485H992.508H960.258V110.176H991.531V123.826H946.576V63.3791ZM946.576 47.7798V30.2312V16.5822H960.83L1005.78 61.4293H946.576V47.7798ZM946.576 14.6324H960.258V0.982849H946.576V14.6324ZM946.576 -61.4134H975.894H976.043V-47.6656C967.343 -47.1494 960.407 -39.9969 960.407 -31.1904C960.407 -27.0107 962.018 -23.2307 964.585 -20.3114L946.576 -2.34544V-61.4134ZM946.576 -123.81H975.894V-94.5618V-93.5867V-63.3632H946.576V-123.81ZM946.576 -186.205H1007.17V-156.9C990.236 -156.314 976.604 -142.669 976.092 -125.759H946.576V-186.205ZM946.576 -217.404V-248.602H976.043V-219.304C962.384 -218.893 950.856 -209.987 946.576 -197.698V-217.404ZM1007.17 -217.404V-188.156H946.775C947.298 -204.368 960.645 -217.404 977.021 -217.404H1007.17ZM977.997 -219.354H1007.17V-248.602H977.997V-219.354ZM962.213 0.982849H1007.17V60.0508L962.213 15.2031V0.982849ZM962.361 -31.1904C962.361 -39.2521 968.939 -45.8141 977.021 -45.8141C985.102 -45.8141 991.679 -39.2521 991.679 -31.1904C991.679 -23.1277 985.102 -16.5662 977.021 -16.5662C968.939 -16.5662 962.361 -23.1277 962.361 -31.1904V-31.1904ZM977.021 -14.6159C986.182 -14.6159 993.634 -22.0502 993.634 -31.1904C993.634 -39.9969 986.697 -47.1494 977.997 -47.6656V-61.4134H1007.17V-0.966923H962.213H947.958L965.954 -18.9194C968.899 -16.2726 972.754 -14.6159 977.021 -14.6159V-14.6159ZM977.849 -63.3632H1007.17V-92.612H977.849V-63.3632ZM978.047 -125.759C978.557 -141.595 991.313 -154.364 1007.17 -154.95V-125.759H978.047ZM977.849 -94.5618H1007.17V-123.81H977.849V-94.5618ZM999.39 219.37H1007.17V248.618H986.434L978.253 240.457L999.39 219.37ZM997.603 218.395L976.871 239.078L956.139 218.395L976.871 197.712L997.603 218.395ZM993.634 171V156.208L1007.17 142.707V184.501L993.634 171ZM1007.17 188.172V217.42H999.39L977.997 196.078V188.172H1007.17ZM977.997 170.429H991.679V156.78H977.997V170.429ZM992.252 172.378L1006.13 186.222H977.997V172.378H992.252ZM993.485 108.227H1007.17V78.9784H993.485V108.227ZM993.485 123.826H1007.17V110.176H993.485V123.826ZM962.213 108.226H991.531V78.9779H962.213V108.226ZM1007.17 125.775V139.95L992.252 154.83H977.425L948.302 125.775H991.531H1007.17ZM1009.12 219.37H1022.8H1023.78H1040.39V202.796V201.821V188.172H1047.33C1052.79 197.365 1060.5 205.051 1069.71 210.498V248.618H1009.12V219.37ZM1009.12 189.208L1022.8 202.857V217.42H1009.12V189.208ZM1024.76 217.42H1038.44V203.771H1024.76V217.42ZM1024.53 201.821L1010.85 188.172H1038.44V201.821H1024.53ZM1009.12 125.775H1046.14C1041.23 134.765 1038.44 145.061 1038.44 155.999C1038.44 166.937 1041.23 177.232 1046.14 186.222H1009.12V125.775ZM1009.12 108.226V78.9784H1030.87C1031.36 83.3521 1035.05 86.7781 1039.56 86.7781C1044.41 86.7781 1048.36 82.8395 1048.36 78.0033C1048.36 73.5002 1044.93 69.8211 1040.54 69.3278V63.3791H1069.71V101.499C1060.5 106.947 1052.79 114.632 1047.33 123.826H1009.12V108.226ZM1039.56 71.1788C1043.34 71.1788 1046.41 74.2409 1046.41 78.0033C1046.41 81.7661 1043.34 84.8283 1039.56 84.8283C1035.79 84.8283 1032.72 81.7661 1032.72 78.0033C1032.72 74.2409 1035.79 71.1788 1039.56 71.1788V71.1788ZM1009.12 63.3791H1038.59V69.3278C1034.53 69.7847 1031.33 72.9783 1030.87 77.0281H1009.12V63.3791ZM1009.12 23.4067C1009.12 15.3445 1015.7 8.78253 1023.78 8.78253C1031.86 8.78253 1038.44 15.3445 1038.44 23.4067V39.0055C1038.44 48.1457 1045.89 55.5795 1055.05 55.5795C1060.76 55.5795 1066.72 52.563 1069.71 44.8668V61.4293H1009.12V23.4067ZM1009.12 0.982849H1069.71V30.2312V33.0153C1069.71 45.7312 1064.1 53.6297 1055.05 53.6297C1046.97 53.6297 1040.39 47.0676 1040.39 39.0055V23.4067C1040.39 14.2664 1032.94 6.83273 1023.78 6.83273C1017.39 6.83273 1011.9 10.4864 1009.12 15.7728V0.982849ZM1009.12 -61.4134H1069.71V-31.5938L1039.01 -0.966923H1009.12V-61.4134ZM1009.12 -94.5618V-123.81H1038.44V-93.1823L1068.33 -63.3632H1009.12V-94.5618ZM1009.12 -154.966C1025.11 -154.532 1038.02 -141.694 1038.54 -125.759H1009.12V-154.966ZM1009.12 -186.205H1012.2C1027.64 -171.477 1048.01 -163.301 1069.71 -163.059V-125.759H1040.49C1039.98 -142.768 1026.19 -156.48 1009.12 -156.916V-186.205ZM1009.12 -217.404H1039.42C1053.35 -217.404 1065.21 -226.283 1069.71 -238.655V-188.156H1009.12V-217.404ZM1009.12 -248.602H1069.66C1069.14 -232.39 1055.79 -219.354 1039.42 -219.354H1009.12V-248.602ZM1069.71 -165.009C1049.25 -165.241 1030.04 -172.747 1015.17 -186.205H1069.71V-165.009ZM1069.71 -64.7417L1040.39 -93.99V-123.81H1069.71V-64.7417ZM1069.71 -0.966927H1041.78L1069.71 -28.8367V-0.966927ZM1069.71 188.172V208.219C1061.55 203.184 1054.66 196.316 1049.62 188.172H1069.71ZM1049.62 123.826C1054.66 115.681 1061.55 108.813 1069.71 103.778V123.826H1049.62ZM1069.71 125.775V186.222H1048.43C1043.34 177.287 1040.39 166.988 1040.39 155.999C1040.39 145.01 1043.34 134.71 1048.43 125.775H1069.71ZM1069.66 250.61C1069.14 266.822 1055.79 279.858 1039.42 279.858H1009.12V250.61H1069.66ZM1071.67 211.685C1080.68 216.582 1091 219.37 1101.96 219.37H1132.26V248.618H1103.05L1102.65 248.218L1102.25 248.618H1071.67V211.685ZM1071.67 188.172H1132.26V217.42H1101.96C1090.95 217.42 1080.62 214.481 1071.67 209.405V188.172ZM1071.67 125.775H1100.98V147.323C1096.6 147.816 1093.17 151.495 1093.17 155.999C1093.17 160.835 1097.11 164.773 1101.96 164.773C1106.47 164.773 1110.16 161.348 1110.66 156.974H1132.26V186.222H1071.67V125.775ZM1071.67 102.592C1080.51 97.5744 1090.71 94.6646 1101.58 94.5965L1102.94 95.9563V94.5778H1132.26V123.826H1071.67V102.592ZM1071.67 64.7576L1099.72 92.7418C1089.6 93.0958 1080.05 95.7541 1071.67 100.313V64.7576ZM1071.67 32.181H1086.32C1090.01 32.181 1093.35 33.5938 1095.93 35.8466L1071.67 60.0508V32.181ZM1071.67 0.982849H1101.03C1101.28 9.11415 1104.55 16.485 1109.78 22.024L1097.31 34.4681C1094.38 31.8629 1090.55 30.2312 1086.32 30.2312H1071.67V0.982849ZM1071.67 -30.7865L1102.37 -61.4134H1132.26V-32.1157C1115.26 -31.6037 1101.55 -17.9255 1101.03 -0.966923H1071.67V-30.7865ZM1071.67 -61.4134H1099.6L1071.67 -33.5441V-61.4134ZM1071.67 -63.3632H1100.98V-123.81H1071.67V-63.3632ZM1071.67 -163.013H1077.61C1078.02 -154.236 1085.24 -147.208 1094.14 -147.208C1098.37 -147.208 1102.19 -148.84 1105.13 -151.445L1109.78 -146.801C1104.55 -141.261 1101.28 -133.89 1101.03 -125.759H1071.67V-163.013ZM1071.67 -186.205H1093.17V-180.257C1084.87 -179.766 1078.24 -173.215 1077.65 -164.963H1071.67V-186.205ZM1071.67 -248.602H1102.28L1131.6 -219.354H1093.17V-188.156H1071.67V-248.602ZM1132.26 -248.602V-221.46L1105.05 -248.602H1132.26ZM1134.21 219.419C1150.13 219.93 1162.97 232.733 1163.48 248.618H1134.21V219.419ZM1134.21 188.172H1194.8V248.618H1165.43C1164.92 231.659 1151.21 217.982 1134.21 217.469V188.172ZM1134.21 156.974H1179.26C1179.76 165.324 1186.43 171.979 1194.8 172.474V186.222H1134.21V156.974ZM1134.21 125.775H1194.8V139.524C1186.43 140.019 1179.76 146.674 1179.26 155.024H1134.21V125.775ZM1134.21 94.006L1164.91 63.3791H1194.8V77.1274C1186.1 77.6431 1179.16 84.7956 1179.16 93.6026C1179.16 102.409 1186.1 109.562 1194.8 110.077V123.826H1134.21V94.006ZM1134.21 63.3791H1162.15L1134.21 91.2489V63.3791ZM1134.21 32.1316C1142.36 31.8857 1149.75 28.6203 1155.3 23.403L1193.42 61.4293H1164.59L1164.34 61.1855L1164.1 61.4293H1134.21V32.1316ZM1134.21 0.982849H1163.48C1162.97 16.8675 1150.13 29.6708 1134.21 30.1818V0.982849ZM1134.21 -0.96693H1163.53V-30.2153H1134.21V-0.96693ZM1134.21 -32.1651H1163.53V-61.4134H1134.21V-32.1651ZM1134.21 -123.81H1163.53V-102.262C1159.14 -101.769 1155.71 -98.0897 1155.71 -93.5867C1155.71 -89.0831 1159.14 -85.4039 1163.53 -84.9111V-63.3632H1134.21V-123.81ZM1134.21 -154.958C1150.13 -154.448 1162.97 -141.644 1163.48 -125.759H1134.21V-154.958ZM1134.21 -186.205H1164.83L1194.8 -156.306V-125.759H1165.43C1164.92 -142.718 1151.21 -156.396 1134.21 -156.908V-186.205ZM1134.21 -216.753L1162.88 -188.156H1134.21V-216.753ZM1134.21 -248.602H1193.42L1164.1 -219.354H1134.37L1134.21 -219.51V-248.602ZM1194.8 -219.354H1166.86L1194.8 -247.224V-219.354ZM1194.8 -186.205V-159.064L1167.59 -186.205H1194.8ZM1164.87 -188.923L1136.32 -217.404H1193.42L1164.87 -188.923ZM1194.8 -216.026V-188.156H1166.86L1194.8 -216.026ZM1165.43 0.982849H1194.8V32.181V60.0508L1156.68 22.024C1161.91 16.485 1165.19 9.11415 1165.43 0.982849V0.982849ZM1171.35 -93.5867C1171.35 -89.8238 1168.28 -86.7616 1164.5 -86.7616C1160.73 -86.7616 1157.66 -89.8238 1157.66 -93.5867C1157.66 -97.349 1160.73 -100.411 1164.5 -100.411C1168.28 -100.411 1171.35 -97.349 1171.35 -93.5867V-93.5867ZM1169.96 -100.411C1168.7 -101.418 1167.17 -102.071 1165.48 -102.262V-123.81H1193.42L1169.96 -100.411ZM1165.48 -63.3632V-84.9111C1169.87 -85.4039 1173.3 -89.0831 1173.3 -93.5867C1173.3 -95.6544 1172.55 -97.5299 1171.35 -99.0327L1194.8 -122.431V-63.3632H1165.48ZM1165.48 -0.96693H1194.8V-30.2153H1165.48V-0.96693ZM1165.48 -32.1651H1194.8V-61.4134H1165.48V-32.1651ZM1194.8 108.128C1187.18 107.615 1181.12 101.332 1181.12 93.6026C1181.12 85.8731 1187.18 79.5897 1194.8 79.0772V108.128ZM1194.8 170.524C1187.18 170.012 1181.12 163.728 1181.12 155.999C1181.12 148.269 1187.18 141.986 1194.8 141.473V170.524ZM1134.21 250.61H1193.42L1164.1 279.858H1134.37L1134.21 279.702V250.61ZM1102.94 -63.3632H1132.26V-123.81H1102.94V-63.3632ZM1132.26 -154.958V-125.759H1102.99C1103.5 -141.644 1116.33 -154.448 1132.26 -154.958V-154.958ZM1095.12 -188.156H1132.26V-217.404H1095.12V-188.156ZM1094.14 -149.158C1086.06 -149.158 1079.48 -155.72 1079.48 -163.783C1079.48 -171.844 1086.06 -178.406 1094.14 -178.406C1102.22 -178.406 1108.8 -171.844 1108.8 -163.783C1108.8 -155.72 1102.22 -149.158 1094.14 -149.158V-149.158ZM1110.76 -163.783C1110.76 -172.589 1103.82 -179.741 1095.12 -180.257V-186.205H1132.26V-156.908C1124.11 -156.662 1116.72 -153.396 1111.16 -148.179L1106.51 -152.824C1109.12 -155.75 1110.76 -159.564 1110.76 -163.783V-163.783ZM1102.94 92.6275H1132.26V63.3791H1102.94V92.6275ZM1102.99 -0.966934C1103.5 -16.8516 1116.33 -29.6554 1132.26 -30.1659V-0.966934H1102.99ZM1132.26 0.982849V30.1818C1116.33 29.6708 1103.5 16.8675 1102.99 0.982849H1132.26ZM1098.69 35.8466L1111.16 23.403C1116.72 28.6203 1124.11 31.8857 1132.26 32.1316V61.4293H1102.94V46.8051C1102.94 42.5875 1101.3 38.7731 1098.69 35.8466V35.8466ZM1100.98 63.3791V91.2489L1073.05 63.3791H1100.98ZM1073.05 61.4293L1097.31 37.2257C1099.57 39.7982 1100.98 43.1265 1100.98 46.8051V61.4293H1073.05ZM1108.8 155.999C1108.8 159.761 1105.73 162.823 1101.96 162.823C1098.19 162.823 1095.12 159.761 1095.12 155.999C1095.12 152.235 1098.19 149.174 1101.96 149.174C1105.73 149.174 1108.8 152.235 1108.8 155.999V155.999ZM1102.94 147.323V125.775H1132.26V155.024H1110.66C1110.2 150.974 1107 147.78 1102.94 147.323V147.323ZM1196.75 188.172H1255.96L1196.75 247.24V188.172ZM1196.75 172.474C1205.12 171.979 1211.8 165.324 1212.29 156.974H1257.34V186.222H1196.75V172.474ZM1196.75 141.473C1204.37 141.986 1210.44 148.269 1210.44 155.999C1210.44 163.728 1204.37 170.012 1196.75 170.524V141.473ZM1196.75 125.775H1226.07V155.024H1212.29C1211.8 146.674 1205.12 140.019 1196.75 139.524V125.775ZM1196.75 123.826H1226.07V63.3791H1196.75V123.826ZM1196.75 32.181H1226.07V46.8051V47.7798V61.4293H1196.75V32.181ZM1196.75 30.2317H1226.07V0.982849H1196.75V30.2317ZM1196.75 -0.96693H1226.07V-30.2153H1196.75V-0.96693ZM1196.75 -61.4134H1255.96L1226.64 -32.1656H1196.75V-61.4134ZM1212.39 -78.962H1226.07V-92.612H1212.39V-78.962ZM1196.75 -123.81H1226.64L1241.3 -109.185L1226.64 -94.5618H1210.44V-77.0122H1228.03V-93.1823L1242.69 -107.807L1257.34 -93.1823V-63.3632H1196.75V-123.81ZM1196.75 -125.759H1226.07V-186.205H1196.75V-125.759ZM1196.75 -217.404H1218.43C1219.23 -213.379 1222.79 -210.332 1227.05 -210.332C1231.56 -210.332 1235.25 -213.757 1235.75 -218.131H1257.34V-203.754V-188.156H1196.75V-217.404ZM1233.89 -219.106C1233.89 -215.344 1230.82 -212.282 1227.05 -212.282C1223.28 -212.282 1220.21 -215.344 1220.21 -219.106C1220.21 -222.869 1223.28 -225.931 1227.05 -225.931C1230.82 -225.931 1233.89 -222.869 1233.89 -219.106V-219.106ZM1196.75 -248.602H1257.34V-220.081H1235.75C1235.25 -224.455 1231.56 -227.881 1227.05 -227.881C1222.29 -227.881 1218.41 -224.075 1218.28 -219.354H1196.75V-248.602ZM1257.34 -123.81V-95.9398L1229.41 -123.81H1257.34ZM1228.03 -149.965H1257.34V-186.205H1228.03V-149.965ZM1228.03 -125.759H1257.34V-148.015H1228.03V-125.759ZM1228.03 155.024H1257.34V125.775H1228.03V155.024ZM1228.03 123.826H1257.34V94.5772H1228.03V123.826ZM1228.03 92.6275H1257.34V63.3791H1228.03V92.6275ZM1228.03 -0.966934V-30.7865L1257.34 -60.0349V-0.966934H1228.03ZM1228.03 45.83H1241.71V32.181H1228.03V45.83ZM1243.66 47.7798V30.2312H1228.03V0.982849H1257.34V61.4293H1228.03V47.7798H1243.66ZM1198.14 248.618L1257.34 189.551V248.618H1198.14ZM1259.3 188.172H1288.67C1289.18 205.13 1302.89 218.808 1319.89 219.32V233.019H1282.63C1282.14 228.645 1278.45 225.22 1273.94 225.22C1269.09 225.22 1265.14 229.158 1265.14 233.994C1265.14 236.066 1265.9 237.947 1267.11 239.45L1259.3 247.24V188.172ZM1259.3 156.974H1273.08C1273.31 160.801 1274.82 164.261 1277.23 166.957L1259.3 184.843V156.974ZM1259.3 125.775H1288.62V139.524C1280.25 140.019 1273.58 146.674 1273.08 155.024H1259.3V125.775ZM1259.3 94.6266C1275.22 95.1371 1288.06 107.941 1288.57 123.826H1259.3V94.6266ZM1259.3 63.3791H1318.51L1280.39 101.405C1274.84 96.1881 1267.45 92.9227 1259.3 92.6768V63.3791ZM1259.3 13.3906L1271.63 25.6918L1282.68 36.7204L1259.3 60.0508V13.3906ZM1259.3 0.982849H1304.25V15.2031L1295.06 24.3798C1292.01 21.6794 1288.17 20.1465 1284.07 20.1465C1279.96 20.1465 1276.12 21.6794 1273.08 24.3798L1259.3 10.633V0.982849ZM1259.3 -36.3978C1267.89 -26.6463 1272.71 -14.211 1272.93 -0.966934H1259.3V-36.3978ZM1259.3 -61.4134H1288.67C1289.18 -44.4548 1302.89 -30.7772 1319.89 -30.2646V-16.5662H1304.25V-0.966923H1274.89C1274.65 -15.4445 1269.15 -29.0234 1259.3 -39.3555V-61.4134ZM1259.3 -92.612H1309.92C1297.81 -88.2322 1289.07 -76.837 1288.67 -63.3632H1259.3V-92.612ZM1259.3 -94.5613H1319.89V-123.81H1259.3V-94.5613ZM1272.91 -148.991L1282.59 -158.641L1292.26 -148.991L1282.59 -139.34L1272.91 -148.991ZM1259.3 -148.016H1271.13L1282.59 -136.582L1295.02 -148.991L1282.59 -161.398L1271.13 -149.966H1259.3V-186.205H1274.94H1288.7C1289.58 -169.584 1303.13 -156.289 1319.89 -155.785V-125.759H1259.3V-148.016ZM1259.3 -188.156H1272.98V-201.805H1259.3V-188.156ZM1259.3 -218.131H1273.96C1282.04 -218.131 1288.62 -211.569 1288.62 -203.507V-188.156H1274.94V-203.754H1259.3V-218.131ZM1259.3 -248.602H1288.62V-211.141C1285.84 -216.427 1280.35 -220.081 1273.96 -220.081H1259.3V-248.602ZM1290.57 -188.156H1319.89V-248.602H1290.57V-188.156ZM1319.89 -157.735C1304.21 -158.238 1291.53 -170.658 1290.66 -186.205H1319.89V-157.735ZM1290.62 -63.3632C1291.13 -79.2484 1303.97 -92.0517 1319.89 -92.5621V-63.3632H1290.62ZM1319.89 -61.4134V-32.2144C1303.97 -32.7249 1291.13 -45.5287 1290.62 -61.4134H1319.89ZM1319.89 188.172V217.371C1303.97 216.86 1291.13 204.056 1290.62 188.172H1319.89ZM1290.57 172.474C1299.27 171.958 1306.21 164.805 1306.21 155.999C1306.21 147.192 1299.27 140.039 1290.57 139.524V125.775H1319.89V186.222H1290.57V172.474ZM1279.99 166.957L1300.58 146.419C1302.84 148.991 1304.25 152.32 1304.25 155.999C1304.25 164.061 1297.68 170.622 1289.59 170.622C1285.91 170.622 1282.57 169.21 1279.99 166.957V166.957ZM1288.62 172.474V186.222H1260.68L1278.61 168.336C1281.31 170.735 1284.78 172.247 1288.62 172.474V172.474ZM1281.77 102.784L1319.89 64.7576V123.826H1290.52C1290.28 115.695 1287 108.323 1281.77 102.784V102.784ZM1299.2 145.04L1278.61 165.578C1276.35 163.006 1274.94 159.678 1274.94 155.999C1274.94 147.936 1281.51 141.375 1289.59 141.375C1293.28 141.375 1296.62 142.788 1299.2 145.04V145.04ZM1306.21 -0.966933H1319.89V-14.616H1306.21V-0.966933ZM1306.21 14.6324H1319.89V0.982849H1306.21V14.6324ZM1274.42 25.7146C1277.09 23.3724 1280.48 22.0963 1284.07 22.0963C1287.65 22.0963 1291.04 23.3724 1293.72 25.7146L1284.07 35.3424L1274.42 25.7146ZM1296.5 25.6918L1305.64 16.5822H1319.89V61.4293H1260.68L1284.07 38.099L1296.5 25.6918ZM1267.1 233.994C1267.1 230.231 1270.17 227.17 1273.94 227.17C1277.71 227.17 1280.78 230.231 1280.78 233.994C1280.78 237.757 1277.71 240.818 1273.94 240.818C1270.17 240.818 1267.1 237.757 1267.1 233.994V233.994ZM1273.94 242.768C1278.45 242.768 1282.14 239.343 1282.63 234.969H1319.89V248.618H1260.68L1268.49 240.826C1269.99 242.022 1271.87 242.768 1273.94 242.768V242.768ZM1321.84 234.969H1336.5C1345.33 234.969 1352.5 228.049 1353.02 219.37H1382.43V248.618H1321.84V234.969ZM1321.84 219.37H1351.06C1350.55 226.971 1344.25 233.019 1336.5 233.019H1321.84V219.37ZM1321.84 217.42H1351.16V188.172H1321.84V217.42ZM1321.84 156.874C1330.54 156.359 1337.48 149.207 1337.48 140.4V125.775H1382.43V155.073C1365.43 155.586 1351.72 169.263 1351.21 186.222H1321.84V156.874ZM1321.84 125.775H1335.52V140.4C1335.52 148.128 1329.46 154.412 1321.84 154.924V125.775ZM1321.84 63.3791H1366.8V93.3968C1366.8 97.1591 1363.73 100.221 1359.96 100.221C1356.19 100.221 1353.12 97.1591 1353.12 93.3968C1353.12 88.56 1349.17 84.622 1344.32 84.622C1339.47 84.622 1335.52 88.56 1335.52 93.3968V123.826H1321.84V63.3791ZM1321.84 16.5822V0.982849H1335.52H1336.1L1366.8 31.6102V61.4293H1321.84V16.5822ZM1321.84 -16.5662V-61.4134H1351.16V-32.1656H1335.52V-0.966923H1321.84V-16.5662ZM1321.84 -92.7103C1330.54 -93.2264 1337.48 -100.379 1337.48 -109.185V-123.81H1366.8V-89.9111C1357.71 -84.4308 1351.55 -74.6263 1351.21 -63.3632H1321.84V-92.7103ZM1321.84 -123.81H1335.52V-109.185C1335.52 -101.456 1329.46 -95.1721 1321.84 -94.6606V-123.81ZM1321.84 -125.759H1335.53V-155.735H1321.84V-125.759ZM1351.16 -156.188V-155.213V-125.759H1337.48V-156.188C1337.48 -159.951 1340.55 -163.013 1344.32 -163.013C1348.09 -163.013 1351.16 -159.951 1351.16 -156.188V-156.188ZM1321.84 -186.205H1382.43V-156.958V-141.359H1368.75V-157.163H1353.06C1352.57 -161.543 1348.84 -164.963 1344.32 -164.963C1339.99 -164.963 1336.39 -161.808 1335.68 -157.685H1321.84V-186.205ZM1321.84 -248.602H1381.05L1360.28 -227.881H1344.07V-211.711L1321.84 -189.535V-248.602ZM1346.03 -212.282H1359.71V-225.931H1346.03V-212.282ZM1382.43 -188.156H1323.23L1345.45 -210.332H1361.66V-226.502L1382.43 -247.224V-188.156ZM1368.75 61.4293H1382.43V32.181H1368.75V61.4293ZM1382.43 -61.4134V-0.966923H1353.12V-31.1904V-32.1656V-61.4134H1382.43ZM1368.75 -125.759H1382.43V-139.409H1368.75V-125.759ZM1382.43 -123.81V-94.5119C1377.52 -94.3633 1372.88 -93.1235 1368.75 -91.0105V-123.81H1382.43ZM1353.12 -125.759H1366.8V-155.213H1353.12V-125.759ZM1382.43 -92.5621V-63.3632H1353.17C1353.68 -79.2484 1366.51 -92.0517 1382.43 -92.5621V-92.5621ZM1337.48 -0.96693H1351.16V-30.2153H1337.48V-0.96693ZM1353.12 0.982849H1382.43V30.2312H1368.18L1338.86 0.982849H1353.12ZM1382.33 123.826H1353.22C1353.73 116.224 1360.03 110.176 1367.77 110.176C1375.52 110.176 1381.82 116.224 1382.33 123.826V123.826ZM1367.77 108.226C1358.95 108.226 1351.78 115.146 1351.26 123.826H1337.48V93.3968C1337.48 89.6344 1340.55 86.5723 1344.32 86.5723C1348.09 86.5723 1351.16 89.6344 1351.16 93.3968C1351.16 98.2335 1355.11 102.171 1359.96 102.171C1364.81 102.171 1368.75 98.2335 1368.75 93.3968V63.3791H1382.43V117.167C1379.65 111.881 1374.16 108.226 1367.77 108.226V108.226ZM1353.17 186.222C1353.68 170.336 1366.51 157.522 1382.43 157.014V186.222H1353.17ZM1353.12 217.42H1382.43V188.172H1353.12V217.42ZM1384.39 219.419C1400.31 219.93 1413.14 232.733 1413.66 248.618H1384.39V219.419ZM1384.39 188.172H1413.67C1414.23 205.119 1427.97 218.77 1444.98 219.233V248.618H1415.61C1415.1 231.659 1401.39 217.982 1384.39 217.469V188.172ZM1384.39 158.352L1412.32 186.222H1384.39V158.352ZM1384.39 132.435C1387.17 137.72 1392.66 141.375 1399.05 141.375C1407.87 141.375 1415.04 134.455 1415.56 125.775H1444.98V154.978C1428.36 155.431 1414.87 168.463 1413.73 184.866L1384.39 155.595V132.435ZM1413.61 125.775C1413.09 133.377 1406.79 139.425 1399.05 139.425C1391.3 139.425 1385 133.377 1384.49 125.775H1413.61ZM1414.68 100.427C1410.91 100.427 1407.84 97.365 1407.84 93.6026C1407.84 89.8398 1410.91 86.7781 1414.68 86.7781C1418.45 86.7781 1421.52 89.8398 1421.52 93.6026C1421.52 97.365 1418.45 100.427 1414.68 100.427V100.427ZM1384.39 63.3791H1444.98V123.826H1415.66V102.278C1420.04 101.785 1423.48 98.1062 1423.48 93.6026C1423.48 88.7658 1419.53 84.8283 1414.68 84.8283C1409.84 84.8283 1405.89 88.7658 1405.89 93.6026C1405.89 98.1062 1409.32 101.785 1413.71 102.278V123.826H1384.39V63.3791ZM1384.39 32.2803C1392.01 32.7923 1398.07 39.0762 1398.07 46.8052C1398.07 54.5341 1392.01 60.818 1384.39 61.3306V32.2803ZM1384.39 0.982849H1398.64L1429.34 31.6102V47.7798H1444.98V61.4293H1391.06C1396.36 58.6567 1400.02 53.1785 1400.02 46.8051C1400.02 37.9986 1393.09 30.8461 1384.39 30.33V0.982849ZM1429.34 0.982849V28.8527L1401.41 0.982849H1429.34ZM1384.39 -61.4134H1398.07V-46.7892C1398.07 -37.649 1405.52 -30.2153 1414.68 -30.2153C1423.52 -30.2153 1430.76 -37.1276 1431.27 -45.8141H1444.98V-0.966923H1431.3H1396.69H1384.39V-61.4134ZM1384.39 -92.5122C1392.01 -92.0002 1398.07 -85.7163 1398.07 -77.9873V-63.3632H1384.39V-92.5122ZM1429.34 -61.4134V-47.7639V-46.7892C1429.34 -38.7271 1422.76 -32.1656 1414.68 -32.1656C1406.6 -32.1656 1400.02 -38.7271 1400.02 -46.7892V-61.4134H1429.34ZM1384.39 -123.81H1415.66H1444.98V-63.3632H1400.02V-77.9874C1400.02 -86.7939 1393.09 -93.9464 1384.39 -94.462V-123.81ZM1384.39 -141.359V-155.008H1413.71V-125.759H1384.39V-141.359ZM1384.39 -186.205H1444.98V-125.759H1415.66V-156.958H1384.39V-186.205ZM1384.39 -248.602H1413.71V-218.783L1384.39 -189.535V-248.602ZM1415.09 -217.404H1444.98V-188.156H1385.77L1415.09 -217.404ZM1431.3 -47.7639H1444.98V-61.4134H1431.3V-47.7639ZM1431.3 30.2317H1444.98V0.982849H1431.3V30.2317ZM1444.98 32.181V45.83H1431.3V33.56V32.181H1444.98ZM1415.61 186.222C1416.08 170.263 1428.98 157.392 1444.98 156.928V186.222H1415.61ZM1444.98 188.172V217.283C1429.04 216.82 1416.18 204.045 1415.62 188.172H1444.98ZM1415.66 -219.354H1444.98V-248.602H1415.66V-219.354ZM1413.71 -250.994L1384.39 -250.552H1382.43H1321.84H1319.89H1259.3H1257.34H1196.75H1194.8H1134.21H1132.26H1103.09L1102.65 -250.994L1102.21 -250.552H1071.67H1069.71H1009.12H1007.17H946.576H944.622H913.35H884.031H882.077H821.488H819.533H758.943H756.988H696.399H694.444H633.854H631.899H602.738L602.295 -250.994L601.853 -250.552H571.309H569.354H508.764H506.811H444.266V-188.156V-186.205V-125.759V-123.81V-63.3632V-61.4134V-0.966934V0.982849V16.5822V61.4293V63.3791V123.826V125.775V186.222V188.172V248.66V311.056V313.006H446.22H506.811H508.764H511.845H514.81H569.354H571.309H592.809H594.763H631.899H633.854H664.473H667.237H694.444H696.399H725.716H727.671H756.988H758.943H774.579H788.346H790.301H819.533H821.488H882.077H884.031H944.622H946.576H1007.17H1009.12H1012.2H1015.17H1069.71H1071.67H1093.17H1095.12H1132.26H1134.21H1164.83H1167.59H1194.8H1196.75H1226.07H1228.03H1257.34H1259.3H1274.94H1288.7H1290.66H1319.89H1321.84H1382.43H1384.39H1444.98H1446.93V311.056V281.808V250.568V188.172V186.222V125.775V123.826V63.3791V61.4293V47.7798V30.2312V0.982849V-0.966934V-61.4134V-63.3632V-123.81V-125.759V-186.205V-188.156V-217.404V-250.994H1413.71Z" fill="#50E6FF"/>
</g>
<path d="M1662.25 -284.324L1119.62 258.281C1082.55 295.363 1032.26 316.194 979.82 316.188H223.359V301.196H979.82C1028.29 301.204 1074.77 281.953 1109.04 247.682L1662.25 -305.53V-284.324Z" fill="#50E6FF" stroke="#50E6FF"/>
<path d="M1261.91 196.034C1243.71 178.113 1233.41 153.666 1233.31 128.122C1233.21 102.578 1243.31 78.0511 1261.38 59.9878L1668.41 -347.05V-355.019H1655.16L1250.78 49.3883C1229.89 70.2776 1218.2 98.6426 1218.32 128.184C1218.43 157.726 1230.34 185.998 1251.39 206.724L1503.15 454.56H1524.51L1261.91 196.034Z" fill="#0078D4" stroke="#0078D4"/>
<path fill-rule="evenodd" clip-rule="evenodd" d="M1272.98 209.693C1272.98 214.125 1269.39 217.718 1264.95 217.718C1260.52 217.718 1256.93 214.125 1256.93 209.693C1256.93 205.26 1260.52 201.667 1264.95 201.667C1269.39 201.667 1272.98 205.26 1272.98 209.693" fill="#50E6FF"/>
<path fill-rule="evenodd" clip-rule="evenodd" d="M1260.98 57.6927C1260.98 62.1251 1257.39 65.7185 1252.95 65.7185C1248.52 65.7185 1244.93 62.1251 1244.93 57.6927C1244.93 53.2604 1248.52 49.667 1252.95 49.667C1257.39 49.667 1260.98 53.2604 1260.98 57.6927" fill="#50E6FF"/>
<path d="M612.838 314.203C616.953 314.203 620.289 310.867 620.289 306.752C620.289 302.637 616.953 299.301 612.838 299.301C608.723 299.301 605.387 302.637 605.387 306.752C605.387 310.867 608.723 314.203 612.838 314.203Z" fill="#0078D4"/>
<path d="M1108.52 266.602C1112.96 266.602 1116.55 263.009 1116.55 258.577C1116.55 254.145 1112.96 250.552 1108.52 250.552C1104.09 250.552 1100.5 254.145 1100.5 258.577C1100.5 263.009 1104.09 266.602 1108.52 266.602Z" fill="#0078D4"/>
<path d="M1331.52 44.05C1335.96 44.05 1339.55 40.4571 1339.55 36.025C1339.55 31.5929 1335.96 28 1331.52 28C1327.09 28 1323.5 31.5929 1323.5 36.025C1323.5 40.4571 1327.09 44.05 1331.52 44.05Z" fill="#0078D4"/>
</g>
</svg>
